<mxfile host="app.diagrams.net" modified="2021-09-14T21:47:27.496Z" agent="5.0 (Windows NT 10.0; Win64; x64) AppleWebKit/537.36 (KHTML, like Gecko) Chrome/93.0.4577.63 Safari/537.36" etag="nXlrQSYlMShusajKqWxA" version="15.2.7" type="github">
  <diagram id="Vz3pPBi_JEpqn8jML1L7" name="Page-1">
    <mxGraphModel dx="1422" dy="762" grid="1" gridSize="10" guides="1" tooltips="1" connect="1" arrows="1" fold="1" page="1" pageScale="1" pageWidth="850" pageHeight="1100" math="0" shadow="0">
      <root>
        <mxCell id="0" />
        <mxCell id="1" parent="0" />
        <mxCell id="0KGPB0pDorEHkufxvKzZ-71" value="" style="edgeStyle=orthogonalEdgeStyle;rounded=0;orthogonalLoop=1;jettySize=auto;html=1;" edge="1" parent="1" source="0KGPB0pDorEHkufxvKzZ-22" target="0KGPB0pDorEHkufxvKzZ-65">
          <mxGeometry relative="1" as="geometry">
            <Array as="points">
              <mxPoint x="450" y="290" />
              <mxPoint x="450" y="290" />
            </Array>
          </mxGeometry>
        </mxCell>
        <mxCell id="0KGPB0pDorEHkufxvKzZ-22" value="Owner&lt;br&gt;" style="swimlane;fontStyle=0;align=center;verticalAlign=top;childLayout=stackLayout;horizontal=1;startSize=30;horizontalStack=0;resizeParent=1;resizeParentMax=0;resizeLast=0;collapsible=0;marginBottom=0;html=1;" vertex="1" parent="1">
          <mxGeometry x="200" y="240" width="140" height="118" as="geometry" />
        </mxCell>
        <mxCell id="0KGPB0pDorEHkufxvKzZ-23" value="Name" style="text;html=1;strokeColor=none;fillColor=none;align=left;verticalAlign=middle;spacingLeft=4;spacingRight=4;overflow=hidden;rotatable=0;points=[[0,0.5],[1,0.5]];portConstraint=eastwest;perimeterSpacing=0;spacingTop=0;spacingBottom=0;" vertex="1" parent="0KGPB0pDorEHkufxvKzZ-22">
          <mxGeometry y="30" width="140" height="20" as="geometry" />
        </mxCell>
        <mxCell id="0KGPB0pDorEHkufxvKzZ-24" value="Phone Number" style="text;html=1;strokeColor=none;fillColor=none;align=left;verticalAlign=middle;spacingLeft=4;spacingRight=4;overflow=hidden;rotatable=0;points=[[0,0.5],[1,0.5]];portConstraint=eastwest;" vertex="1" parent="0KGPB0pDorEHkufxvKzZ-22">
          <mxGeometry y="50" width="140" height="20" as="geometry" />
        </mxCell>
        <mxCell id="0KGPB0pDorEHkufxvKzZ-25" value="&lt;font color=&quot;#000000&quot;&gt;Email Adress&lt;/font&gt;" style="text;html=1;strokeColor=none;fillColor=none;align=left;verticalAlign=middle;spacingLeft=4;spacingRight=4;overflow=hidden;rotatable=0;points=[[0,0.5],[1,0.5]];portConstraint=eastwest;fontColor=#808080;" vertex="1" parent="0KGPB0pDorEHkufxvKzZ-22">
          <mxGeometry y="70" width="140" height="20" as="geometry" />
        </mxCell>
        <mxCell id="0KGPB0pDorEHkufxvKzZ-27" value="" style="line;strokeWidth=1;fillColor=none;align=left;verticalAlign=middle;spacingTop=-1;spacingLeft=3;spacingRight=3;rotatable=0;labelPosition=right;points=[];portConstraint=eastwest;" vertex="1" parent="0KGPB0pDorEHkufxvKzZ-22">
          <mxGeometry y="90" width="140" height="8" as="geometry" />
        </mxCell>
        <mxCell id="0KGPB0pDorEHkufxvKzZ-28" value="Acquire ()" style="text;html=1;strokeColor=none;fillColor=none;align=center;verticalAlign=middle;spacingLeft=4;spacingRight=4;overflow=hidden;rotatable=0;points=[[0,0.5],[1,0.5]];portConstraint=eastwest;" vertex="1" parent="0KGPB0pDorEHkufxvKzZ-22">
          <mxGeometry y="98" width="140" height="20" as="geometry" />
        </mxCell>
        <mxCell id="0KGPB0pDorEHkufxvKzZ-65" value="Owner&lt;br&gt;" style="swimlane;fontStyle=0;align=center;verticalAlign=top;childLayout=stackLayout;horizontal=1;startSize=30;horizontalStack=0;resizeParent=1;resizeParentMax=0;resizeLast=0;collapsible=0;marginBottom=0;html=1;" vertex="1" parent="1">
          <mxGeometry x="520" y="240" width="140" height="178" as="geometry" />
        </mxCell>
        <mxCell id="0KGPB0pDorEHkufxvKzZ-66" value="Street" style="text;strokeColor=none;fillColor=none;align=left;verticalAlign=middle;spacingLeft=4;spacingRight=4;overflow=hidden;rotatable=0;points=[[0,0.5],[1,0.5]];portConstraint=eastwest;perimeterSpacing=0;spacingTop=0;spacingBottom=0;spacing=2;html=1;" vertex="1" parent="0KGPB0pDorEHkufxvKzZ-65">
          <mxGeometry y="30" width="140" height="20" as="geometry" />
        </mxCell>
        <mxCell id="0KGPB0pDorEHkufxvKzZ-67" value="City" style="text;html=1;strokeColor=none;fillColor=none;align=left;verticalAlign=middle;spacingLeft=4;spacingRight=4;overflow=hidden;rotatable=0;points=[[0,0.5],[1,0.5]];portConstraint=eastwest;" vertex="1" parent="0KGPB0pDorEHkufxvKzZ-65">
          <mxGeometry y="50" width="140" height="20" as="geometry" />
        </mxCell>
        <mxCell id="0KGPB0pDorEHkufxvKzZ-68" value="&lt;font color=&quot;#000000&quot;&gt;State&lt;/font&gt;" style="text;html=1;strokeColor=none;fillColor=none;align=left;verticalAlign=middle;spacingLeft=4;spacingRight=4;overflow=hidden;rotatable=0;points=[[0,0.5],[1,0.5]];portConstraint=eastwest;fontColor=#808080;" vertex="1" parent="0KGPB0pDorEHkufxvKzZ-65">
          <mxGeometry y="70" width="140" height="20" as="geometry" />
        </mxCell>
        <mxCell id="0KGPB0pDorEHkufxvKzZ-72" value="&amp;nbsp;Postal Code" style="text;html=1;align=left;verticalAlign=middle;resizable=0;points=[];autosize=1;strokeColor=none;fillColor=none;" vertex="1" parent="0KGPB0pDorEHkufxvKzZ-65">
          <mxGeometry y="90" width="140" height="20" as="geometry" />
        </mxCell>
        <mxCell id="0KGPB0pDorEHkufxvKzZ-74" value="&amp;nbsp;Country" style="text;html=1;align=left;verticalAlign=middle;resizable=0;points=[];autosize=1;strokeColor=none;fillColor=none;" vertex="1" parent="0KGPB0pDorEHkufxvKzZ-65">
          <mxGeometry y="110" width="140" height="20" as="geometry" />
        </mxCell>
        <mxCell id="0KGPB0pDorEHkufxvKzZ-69" value="" style="line;strokeWidth=1;fillColor=none;align=left;verticalAlign=middle;spacingTop=-1;spacingLeft=3;spacingRight=3;rotatable=0;labelPosition=right;points=[];portConstraint=eastwest;" vertex="1" parent="0KGPB0pDorEHkufxvKzZ-65">
          <mxGeometry y="130" width="140" height="8" as="geometry" />
        </mxCell>
        <mxCell id="0KGPB0pDorEHkufxvKzZ-70" value="Validate ()" style="text;html=1;strokeColor=none;fillColor=none;align=left;verticalAlign=middle;spacingLeft=4;spacingRight=4;overflow=hidden;rotatable=0;points=[[0,0.5],[1,0.5]];portConstraint=eastwest;" vertex="1" parent="0KGPB0pDorEHkufxvKzZ-65">
          <mxGeometry y="138" width="140" height="20" as="geometry" />
        </mxCell>
        <mxCell id="0KGPB0pDorEHkufxvKzZ-75" value="&amp;nbsp;Assign ()" style="text;html=1;align=left;verticalAlign=middle;resizable=0;points=[];autosize=1;strokeColor=none;fillColor=none;" vertex="1" parent="0KGPB0pDorEHkufxvKzZ-65">
          <mxGeometry y="158" width="140" height="20" as="geometry" />
        </mxCell>
        <mxCell id="0KGPB0pDorEHkufxvKzZ-76" value="has" style="text;html=1;align=center;verticalAlign=middle;resizable=0;points=[];autosize=1;strokeColor=none;fillColor=none;" vertex="1" parent="1">
          <mxGeometry x="410" y="270" width="30" height="20" as="geometry" />
        </mxCell>
        <mxCell id="0KGPB0pDorEHkufxvKzZ-77" value="1" style="text;html=1;align=center;verticalAlign=middle;resizable=0;points=[];autosize=1;strokeColor=none;fillColor=none;" vertex="1" parent="1">
          <mxGeometry x="490" y="270" width="20" height="20" as="geometry" />
        </mxCell>
        <mxCell id="0KGPB0pDorEHkufxvKzZ-78" value="0..1" style="text;html=1;align=center;verticalAlign=middle;resizable=0;points=[];autosize=1;strokeColor=none;fillColor=none;" vertex="1" parent="1">
          <mxGeometry x="330" y="270" width="40" height="20" as="geometry" />
        </mxCell>
        <mxCell id="0KGPB0pDorEHkufxvKzZ-100" style="edgeStyle=orthogonalEdgeStyle;rounded=0;orthogonalLoop=1;jettySize=auto;html=1;exitX=0.5;exitY=0;exitDx=0;exitDy=0;endArrow=block;endFill=0;strokeWidth=1;endSize=15;" edge="1" parent="1" source="0KGPB0pDorEHkufxvKzZ-93">
          <mxGeometry relative="1" as="geometry">
            <mxPoint x="274" y="362" as="targetPoint" />
            <Array as="points">
              <mxPoint x="140" y="410" />
              <mxPoint x="274" y="410" />
            </Array>
          </mxGeometry>
        </mxCell>
        <mxCell id="0KGPB0pDorEHkufxvKzZ-93" value="Owner&lt;br&gt;" style="swimlane;fontStyle=0;align=center;verticalAlign=top;childLayout=stackLayout;horizontal=1;startSize=30;horizontalStack=0;resizeParent=1;resizeParentMax=0;resizeLast=0;collapsible=0;marginBottom=0;html=1;" vertex="1" parent="1">
          <mxGeometry x="70" y="510" width="140" height="118" as="geometry" />
        </mxCell>
        <mxCell id="0KGPB0pDorEHkufxvKzZ-94" value="Name" style="text;html=1;strokeColor=none;fillColor=none;align=left;verticalAlign=middle;spacingLeft=4;spacingRight=4;overflow=hidden;rotatable=0;points=[[0,0.5],[1,0.5]];portConstraint=eastwest;perimeterSpacing=0;spacingTop=0;spacingBottom=0;" vertex="1" parent="0KGPB0pDorEHkufxvKzZ-93">
          <mxGeometry y="30" width="140" height="20" as="geometry" />
        </mxCell>
        <mxCell id="0KGPB0pDorEHkufxvKzZ-95" value="Phone Number" style="text;html=1;strokeColor=none;fillColor=none;align=left;verticalAlign=middle;spacingLeft=4;spacingRight=4;overflow=hidden;rotatable=0;points=[[0,0.5],[1,0.5]];portConstraint=eastwest;" vertex="1" parent="0KGPB0pDorEHkufxvKzZ-93">
          <mxGeometry y="50" width="140" height="20" as="geometry" />
        </mxCell>
        <mxCell id="0KGPB0pDorEHkufxvKzZ-96" value="&lt;font color=&quot;#000000&quot;&gt;Email Adress&lt;/font&gt;" style="text;html=1;strokeColor=none;fillColor=none;align=left;verticalAlign=middle;spacingLeft=4;spacingRight=4;overflow=hidden;rotatable=0;points=[[0,0.5],[1,0.5]];portConstraint=eastwest;fontColor=#808080;" vertex="1" parent="0KGPB0pDorEHkufxvKzZ-93">
          <mxGeometry y="70" width="140" height="20" as="geometry" />
        </mxCell>
        <mxCell id="0KGPB0pDorEHkufxvKzZ-97" value="" style="line;strokeWidth=1;fillColor=none;align=left;verticalAlign=middle;spacingTop=-1;spacingLeft=3;spacingRight=3;rotatable=0;labelPosition=right;points=[];portConstraint=eastwest;" vertex="1" parent="0KGPB0pDorEHkufxvKzZ-93">
          <mxGeometry y="90" width="140" height="8" as="geometry" />
        </mxCell>
        <mxCell id="0KGPB0pDorEHkufxvKzZ-98" value="Acquire ()" style="text;html=1;strokeColor=none;fillColor=none;align=center;verticalAlign=middle;spacingLeft=4;spacingRight=4;overflow=hidden;rotatable=0;points=[[0,0.5],[1,0.5]];portConstraint=eastwest;" vertex="1" parent="0KGPB0pDorEHkufxvKzZ-93">
          <mxGeometry y="98" width="140" height="20" as="geometry" />
        </mxCell>
        <mxCell id="0KGPB0pDorEHkufxvKzZ-103" value="Owner&lt;br&gt;" style="swimlane;fontStyle=0;align=center;verticalAlign=top;childLayout=stackLayout;horizontal=1;startSize=30;horizontalStack=0;resizeParent=1;resizeParentMax=0;resizeLast=0;collapsible=0;marginBottom=0;html=1;" vertex="1" parent="1">
          <mxGeometry x="320" y="510" width="140" height="118" as="geometry" />
        </mxCell>
        <mxCell id="0KGPB0pDorEHkufxvKzZ-104" value="Name" style="text;html=1;strokeColor=none;fillColor=none;align=left;verticalAlign=middle;spacingLeft=4;spacingRight=4;overflow=hidden;rotatable=0;points=[[0,0.5],[1,0.5]];portConstraint=eastwest;perimeterSpacing=0;spacingTop=0;spacingBottom=0;" vertex="1" parent="0KGPB0pDorEHkufxvKzZ-103">
          <mxGeometry y="30" width="140" height="20" as="geometry" />
        </mxCell>
        <mxCell id="0KGPB0pDorEHkufxvKzZ-105" value="Phone Number" style="text;html=1;strokeColor=none;fillColor=none;align=left;verticalAlign=middle;spacingLeft=4;spacingRight=4;overflow=hidden;rotatable=0;points=[[0,0.5],[1,0.5]];portConstraint=eastwest;" vertex="1" parent="0KGPB0pDorEHkufxvKzZ-103">
          <mxGeometry y="50" width="140" height="20" as="geometry" />
        </mxCell>
        <mxCell id="0KGPB0pDorEHkufxvKzZ-106" value="&lt;font color=&quot;#000000&quot;&gt;Email Adress&lt;/font&gt;" style="text;html=1;strokeColor=none;fillColor=none;align=left;verticalAlign=middle;spacingLeft=4;spacingRight=4;overflow=hidden;rotatable=0;points=[[0,0.5],[1,0.5]];portConstraint=eastwest;fontColor=#808080;" vertex="1" parent="0KGPB0pDorEHkufxvKzZ-103">
          <mxGeometry y="70" width="140" height="20" as="geometry" />
        </mxCell>
        <mxCell id="0KGPB0pDorEHkufxvKzZ-107" value="" style="line;strokeWidth=1;fillColor=none;align=left;verticalAlign=middle;spacingTop=-1;spacingLeft=3;spacingRight=3;rotatable=0;labelPosition=right;points=[];portConstraint=eastwest;" vertex="1" parent="0KGPB0pDorEHkufxvKzZ-103">
          <mxGeometry y="90" width="140" height="8" as="geometry" />
        </mxCell>
        <mxCell id="0KGPB0pDorEHkufxvKzZ-108" value="Acquire ()" style="text;html=1;strokeColor=none;fillColor=none;align=center;verticalAlign=middle;spacingLeft=4;spacingRight=4;overflow=hidden;rotatable=0;points=[[0,0.5],[1,0.5]];portConstraint=eastwest;" vertex="1" parent="0KGPB0pDorEHkufxvKzZ-103">
          <mxGeometry y="98" width="140" height="20" as="geometry" />
        </mxCell>
      </root>
    </mxGraphModel>
  </diagram>
</mxfile>
